<svg xmlns="http://www.w3.org/2000/svg" version="1.1" xmlns:xlink="http://www.w3.org/1999/xlink" width="512" height="512" x="0" y="0" viewBox="0 0 512 512" style="enable-background:new 0 0 512 512" xml:space="preserve" class=""><g><path d="M449.455 476.505c-20.327 0-33.053-6.207-42.579-18.449L298.988 319.769c-18.88-2.524-36.366-5.571-52.399-9.135-9.419-2.094-18.385-4.378-26.896-6.852l-23.786 16.844c9.064 4.238 15.36 13.445 15.36 24.095 0 7.101-2.765 13.775-7.785 18.795-2.928 2.93-7.677 2.928-10.606-.001s-2.929-7.678.001-10.606a11.502 11.502 0 0 0 3.391-8.188c0-6.385-5.194-11.58-11.579-11.58h-30c-6.385 0-11.58 5.195-11.58 11.58 0 3.094 1.204 6.001 3.391 8.188a7.498 7.498 0 0 1 .001 10.606 7.498 7.498 0 0 1-10.606.001c-5.021-5.02-7.785-11.694-7.785-18.795 0-14.656 11.924-26.58 26.58-26.58h13.658v-34.354c-14.833-7.73-27.117-16.443-36.78-26.106l-.021-.021c-28.471-28.481-44.862-65.823-46.598-105.807A65.764 65.764 0 0 1 47.79 134.95c-.437 4.592-.657 9.636-.657 15.215a7.505 7.505 0 0 1-12.2 5.853C14.08 139.276 2.12 114.354 2.12 87.641c0-19.003 5.934-36.976 17.187-52.136C20.674 15.701 37.223.007 57.368.007c0 0 31.44-.007 49.112-.007 25.564 0 51.306 9.088 72.481 25.589a7.5 7.5 0 0 1-9.22 11.832C151.188 22.962 128.721 15 106.481 15c-30.451 0-49.112.007-49.112.007-11.777 0-21.528 8.838-22.97 20.23l28.332 28.332C65.496 44.607 81.865 30 101.583 30c27.802 0 56.559 21.102 56.559 56.415 0 33.715-25.469 61.593-58.179 65.403.97 20.331 6.124 39.898 15.05 57.701 3.529-28.633 28.005-50.875 57.576-50.875h36.939c4.143 0 7.5 3.358 7.5 7.5s-3.357 7.5-7.5 7.5h-36.939c-23.718 0-43.014 19.296-43.014 43.014 0 11.489 4.475 22.291 12.599 30.416 9.147 9.147 20.942 17.368 35.345 24.65 60.003-.675 101.663-37.675 101.663-70.913a7.499 7.499 0 0 1 11.828-6.125l51.101 36.113c-20.877-34.991-41.552-56.886-123.228-114.676a7.503 7.503 0 0 1-2.936-4.271c-5.659-22.216-15.197-41.441-28.349-57.142a7.5 7.5 0 1 1 11.498-9.631c14.069 16.794 24.383 37.096 30.68 60.379 90.096 63.896 106.901 85.035 131.474 128.459 1.133 2.002 6.455 13.722 8.46 17.264A7.5 7.5 0 0 1 358.855 261l-11.045-7.806c-3.663 13.066-12.622 25.71-25.789 35.997-7.966 6.223-17.069 11.241-26.944 14.934 36.612 6.23 89.854 8.86 138.261 9.535h.012l.004-.012h-.001l-52.601-37.174a7.5 7.5 0 1 1 8.656-12.25l52.602 37.174a14.931 14.931 0 0 1 5.607 16.893 14.98 14.98 0 0 1-14.488 10.368c-6.243-.087-12.398-.209-18.474-.366l93.62 165.444c2.168 3.832 2.139 8.389-.079 12.191-2.217 3.803-6.169 6.073-10.571 6.073-15.443 0-29.854-7.848-38.55-20.993zm10.34-11.547 11.785 17.765c4.96 7.499 12.605 12.46 21.074 13.867l-95.552-168.859a1280.328 1280.328 0 0 1-29.302-1.446l31.435 47.384a7.5 7.5 0 1 1-12.5 8.292l-37.804-56.985a984.05 984.05 0 0 1-28.945-2.677l98.722 126.54c5.121 6.58 11.826 10.549 20.364 12.018l-37.17-56.03a7.5 7.5 0 1 1 12.5-8.292l45.269 68.239c.042.059.084.122.124.184zM183.347 290.895v20.245l18.457-13.069c-6.469-2.267-12.62-4.658-18.457-7.176zm22.862-7.097c13.78 4.842 29.167 9.103 46.146 12.779.154-.01.312-.015.469-.015 22.824 0 44.119-6.816 59.963-19.193 12.372-9.665 20.241-21.987 21.651-33.626l-41.863-29.585c-3.955 16.516-15.066 32.601-31.804 45.556-15.252 11.805-34.015 20.016-54.562 24.084zM77.318 78.221c14.866 15.751 21.289 32.413 22.324 58.511 24.567-3.572 43.499-24.775 43.499-50.317C143.142 57.849 118.84 45 101.583 45c-13.38 0-24.265 10.885-24.265 24.264zM51.357 116.58a50.84 50.84 0 0 0 33.261 20.101c-1.035-22.573-6.585-34.864-15.651-45.351-8.04 6.584-13.973 14.057-17.61 25.25zm-23.62-66.791C20.768 61.141 17.12 74.073 17.12 87.641c0 16.694 5.637 32.545 15.819 45.283 2.673-26.312 11.839-40.865 25.544-52.388zm79.409 40.671a7.5 7.5 0 0 1-7.5-7.5V67.48c0-4.142 3.357-7.5 7.5-7.5s7.5 3.358 7.5 7.5v15.48a7.5 7.5 0 0 1-7.5 7.5z" fill="fff" opacity="1" data-original="#000000" class=""></path></g></svg>