<svg xmlns="http://www.w3.org/2000/svg" version="1.1" xmlns:xlink="http://www.w3.org/1999/xlink" width="512" height="512" x="0" y="0" viewBox="0 0 512 512" style="enable-background:new 0 0 512 512" xml:space="preserve" class=""><g><path d="m325.29 191.918-52.384-45.555c7.973-4.644 15.887-9.918 23.617-15.746 5.852-4.41 7.622-12.05 4.309-18.586-3.312-6.523-10.512-9.601-17.512-7.484a168.469 168.469 0 0 1-15.914 3.96c9.324-6.984 18.403-14.984 27.176-23.968 5.117-5.242 5.711-13.062 1.45-19.023-4.259-5.946-11.845-7.903-18.442-4.754a165.224 165.224 0 0 1-7.664 3.41c12.558-14.145 22.183-29.152 29.242-42.192 3.488-6.44 1.922-14.128-3.813-18.69-5.718-4.556-13.55-4.36-19.035.472-39.675 34.953-85.687 43.066-129.492 46.625a7.501 7.501 0 0 0-6.871 8.082c.336 4.129 3.957 7.195 8.086 6.867 46.14-3.75 94.719-12.383 137.516-49.727-14.18 25.961-39.067 59.934-77.641 76.098a7.503 7.503 0 0 0-1.691 12.848c26.242 20.312 41.293 50.96 41.293 84.09 0 58.601-47.68 106.277-106.282 106.277-20.91 0-41.148-6.07-58.527-17.563a7.5 7.5 0 1 0-8.274 12.516A120.669 120.669 0 0 0 110.555 306c4.812 53.633 15.793 97.934 32.652 131.703C167.824 487.008 204.133 512 251.148 512h.329a7.5 7.5 0 0 0-.02-15c-.102.004-.195 0-.297 0-40.863 0-72.668-22.203-94.535-66-15.348-30.738-25.926-72.828-30.73-122.063 5.066.641 10.183.985 15.343.985 66.875 0 121.282-54.402 121.282-121.277 0-12.477-1.88-24.645-5.461-36.184l58.386 50.777a7.467 7.467 0 0 0 4.918 1.84 7.5 7.5 0 0 0 4.926-13.16zm-38.49-72.754c-8.484 6.344-17.179 11.965-25.898 16.758l-11.3-9.828a182.511 182.511 0 0 0 37.199-6.93zm-42.405-31.312c.23-.032.46-.067.69-.118a182.306 182.306 0 0 0 38.15-13.046c-15.34 15.601-31.594 27.957-48.38 36.8a121.828 121.828 0 0 0-10.351-11.031c7.105-3.727 13.726-7.984 19.89-12.605zM417.652 272.246l-67.675-58.855a7.501 7.501 0 0 0-10.582.734 7.505 7.505 0 0 0 .738 10.582l67.676 58.856a7.474 7.474 0 0 0 4.918 1.84c2.097 0 4.18-.872 5.664-2.579a7.496 7.496 0 0 0-.739-10.578zM46.32 236.465a13.735 13.735 0 0 0 2.461-1.895 13.628 13.628 0 0 0 3.61-13.39c-1.75-6.305-2.371-11.805-1.887-16.192h3.355c13.664 0 24.825-11.004 24.875-24.558 0-27.801-19.847-50.418-44.246-50.418a39.1 39.1 0 0 0-6.625.57c.07-14.957 5.973-33.105 26.867-48.441 14.114-10.356 36.711-12.774 60.583-14.508 4.132-.301 7.238-3.89 6.937-8.024s-3.883-7.226-8.023-6.937c-26.141 1.902-51.043 4.66-68.372 17.379-40.078 29.41-36.296 70.254-26.69 90.812-8.138 6.664-16.7 17.602-18.872 34.86-2.234 17.78 8.371 32.199 29.262 40.199a121.097 121.097 0 0 0 18.851 30.754 7.479 7.479 0 0 0 5.746 2.672 7.499 7.499 0 0 0 5.734-12.328 106.013 106.013 0 0 1-13.566-20.555zm-11.832-91.453c16.125 0 29.246 15.886 29.246 35.39-.02 4.743-3.586 8.68-8.238 9.446.004-1.301-.156-2.61-.527-3.875l-6.817-23.168a13.624 13.624 0 0 0-7.75-8.72 13.57 13.57 0 0 0-8.129-.788 55.314 55.314 0 0 1-2.578-7.813 24.349 24.349 0 0 1 4.793-.472zm-19.312 52.582c2-15.91 11.156-24.469 19.058-28.961l6.16 20.945c-6.687 9.836-5.581 23.027-3.085 33.203-11.575-3.902-23.871-11.347-22.133-25.187zm0 0" fill="#fff" opacity="1" data-original="#000000"></path><path d="M107.012 139.82a18.544 18.544 0 0 0-13.2 5.47c-3.527 3.523-5.468 8.21-5.468 13.198s1.941 9.676 5.469 13.203a18.557 18.557 0 0 0 13.199 5.465 18.56 18.56 0 0 0 13.203-5.465 18.547 18.547 0 0 0 5.469-13.203c0-4.984-1.942-9.675-5.47-13.199a18.547 18.547 0 0 0-13.202-5.469zm2.593 21.262a3.642 3.642 0 0 1-2.593 1.078c-.567 0-1.66-.14-2.594-1.078a3.651 3.651 0 0 1-1.074-2.594c0-.566.14-1.66 1.074-2.593a3.657 3.657 0 0 1 2.594-1.075c.57 0 1.66.14 2.593 1.075a3.648 3.648 0 0 1 1.079 2.593c0 .57-.141 1.66-1.079 2.594zM169.898 249.727c25.727 0 46.66-20.934 46.66-46.66 0-25.727-20.933-46.657-46.66-46.657-25.726 0-46.656 20.93-46.656 46.656 0 25.727 20.93 46.66 46.656 46.66zm0-78.32c17.457 0 31.66 14.202 31.66 31.66 0 17.456-14.203 31.656-31.66 31.656s-31.656-14.2-31.656-31.657 14.2-31.66 31.656-31.66zM367.828 280.012h-.027a7.504 7.504 0 0 0-7.5 7.476v.157a7.5 7.5 0 0 0 7.476 7.523h.028a7.502 7.502 0 0 0 7.5-7.477v-.156a7.504 7.504 0 0 0-7.477-7.523zM252.375 276.152c-4.14 0-7.5 3.36-7.5 7.5v.157a7.5 7.5 0 1 0 15 0v-.157a7.5 7.5 0 0 0-7.5-7.5zM231.305 283.496a7.504 7.504 0 0 0-7.5 7.477v.156a7.5 7.5 0 0 0 7.476 7.523h.028a7.502 7.502 0 0 0 7.5-7.476v-.156a7.505 7.505 0 0 0-7.48-7.524h-.024zm0 0" fill="#fff" opacity="1" data-original="#fff"></path></g></svg>