    <svg version="1.1" xmlns="http://www.w3.org/2000/svg" xmlns:xlink="http://www.w3.org/1999/xlink" width="26px" height="26px" viewBox="0,0,256,256"><g fill="#00bb1f" fill-rule="nonzero" stroke="none" stroke-width="1" stroke-linecap="butt" stroke-linejoin="miter" stroke-miterlimit="10" stroke-dasharray="" stroke-dashoffset="0" font-family="none" font-weight="none" font-size="none" text-anchor="none" style="mix-blend-mode: normal"><g transform="scale(9.84615,9.84615)"><path d="M17.86719,3.89063c-2.09375,0 -3.88672,1.49219 -4.87109,2.51953c-0.98047,-1.02734 -2.76953,-2.51953 -4.86328,-2.51953c-3.61328,0 -6.13281,2.51563 -6.13281,6.11719c0,3.97266 3.13281,6.53906 6.16016,9.01953c1.42969,1.17188 2.91016,2.38281 4.04297,3.73047c0.19141,0.22266 0.47266,0.35156 0.76563,0.35156h0.05859c0.29688,0 0.57422,-0.12891 0.76563,-0.35156c1.13672,-1.34766 2.61328,-2.55859 4.04688,-3.73047c3.02734,-2.48047 6.16016,-5.04687 6.16016,-9.01953c0,-3.60156 -2.51953,-6.11719 -6.13281,-6.11719z"></path></g></g></svg>
