<svg xmlns="http://www.w3.org/2000/svg" version="1.1" xmlns:xlink="http://www.w3.org/1999/xlink" width="512" height="512" x="0" y="0" viewBox="0 0 512.001 512.001" style="enable-background:new 0 0 512 512" xml:space="preserve" class=""><g><path d="M132.205 305.09a68.228 68.228 0 0 1-6.733-.338c-4.163-.417-7.905 2.63-8.323 6.809a7.604 7.604 0 0 0 6.81 8.323 83.58 83.58 0 0 0 8.235.414h.005a7.605 7.605 0 0 0 .006-15.208zM129.252 139.195c-5.518-4.915-14.044-7.849-22.805-7.849-11.634 0-21.937 5.212-28.27 14.299-10.999 15.782-10.13 41.247 2.579 75.684 1.846 5.005 6.415 8.24 11.638 8.241h.002c6.037 0 11.888-4.103 17.882-12.541 2.788-3.923 26.529-38.53 27.59-40.077 6.832-10.22 2.887-27.511-8.616-37.757zm-3.976 29.231c-.246.359-30.394 43.616-31.373 44.534-12.863-36.469-7.622-52.344-3.248-58.619 4.72-6.776 11.922-7.787 15.793-7.787 5.666 0 10.456 2.007 12.691 3.998 6.659 5.933 7.93 15.191 6.137 17.874z" fill="#ffffff" opacity="1" data-original="#000000" class=""></path><path d="M129.252 139.195c-5.518-4.915-14.043-7.849-22.805-7.849-11.634 0-21.937 5.211-28.27 14.299-10.999 15.782-10.13 41.246 2.579 75.684 1.846 5.005 6.415 8.24 11.638 8.241h.002c6.037 0 11.888-4.102 17.882-12.54 2.788-3.923 26.529-38.531 27.59-40.077 6.832-10.221 2.888-27.512-8.616-37.758zm-3.976 29.231c-.246.36-30.394 43.616-31.373 44.534-12.862-36.469-7.621-52.344-3.248-58.619 4.72-6.776 11.922-7.787 15.793-7.787 5.665 0 10.456 2.007 12.69 3.998 6.661 5.933 7.932 15.191 6.138 17.874z" fill="#ffffff" opacity="1" data-original="#000000" class=""></path><path d="M495.457 395.237c-10.483-13.485-28.31-32.705-48.417-52.752l-.003-.002c-3.916-14.203-10.6-31.57-19.925-51.757-19.173-41.503-46.176-87.405-63.153-112.49a9.587 9.587 0 0 0-.206-.291c-23.237-31.088-49.278-48.317-77.523-51.337-.043-.054-.079-.109-.124-.162-27.866-32.867-57.854-57.479-86.719-71.177-23.889-11.793-48.265-16.605-70.496-13.922-23.569 2.846-44.297 14.098-59.95 32.543C37.5 109.742 28.856 159.067 27.07 193.672c-8.855 10.015-20.243 26.101-24.905 46.45-5.596 24.434-.33 48.791 15.652 72.391 1.47 2.171 6.281 4.953 10.559 2.032 3.468-2.367 4.387-7.083 2.033-10.56-23.317-34.433-15.615-64.307-3.454-84.607C29.303 298.374 63.06 336.367 69.34 342.35c-11.245-7.74-19.009-15.02-22.987-19.084a7.603 7.603 0 0 0-10.752-.117 7.603 7.603 0 0 0-.117 10.753c8.178 8.357 30.901 29.103 65.963 42.249 22.442 19.904 48.314 35.974 75.095 46.372l5.604 9.708a18.552 18.552 0 0 0 7.19 6.997l-2.423 11.205c-11.262 1.755-18.025 7.012-18.515 7.404a7.604 7.604 0 1 0 9.501 11.874c.139-.111 14.046-10.896 36.35.798 1.126.591 7.291 2.198 10.265-3.204 2.026-3.678.516-8.315-3.204-10.265-6.804-3.567-13.126-5.563-18.86-6.5l2.206-10.204a18.592 18.592 0 0 0 9.106-7.283c9.072 1.581 28.308 5.061 46.976.768l.766 1.328a18.538 18.538 0 0 0 6.865 6.821l-1.83 8.465c-11.262 1.755-18.024 7.012-18.515 7.404a7.604 7.604 0 1 0 9.501 11.874c.14-.111 14.047-10.896 36.35.798 1.126.591 7.124 2.198 10.265-3.204 2.111-3.631.516-8.315-3.204-10.265-6.804-3.567-13.126-5.563-18.86-6.5l1.543-7.138a18.596 18.596 0 0 0 10.012-8.252l10.358-17.941c1.432-.954 15.639-9.763 24.056-20.474 21.156 11.361 50.001 26.131 74.65 36.201 18.847 7.7 32.108 11.477 41.209 11.476 6.519 0 10.905-1.939 13.674-5.761 1.561-2.154 2.267-4.515 2.413-6.942 7.114 2.771 41.62 14.77 49.575 3.599 5.7-8.003 1.544-19.938-14.109-40.073zm-143.992-208.33c16.649 24.625 43.063 69.545 61.841 110.195 25.772 55.79 24.359 76.358 20.076 80.431-2.313 2.198-16.506 4.226-74.678-33.567-1.341-.871-2.853-1.43-4.44-1.43-.275 0-13.046 1.097-19.068 1.049-108.584-.859-151.84-81.601-148.507-117.922 3.328-36.264 36.545-84.332 90.48-84.332 26.653 0 51.65 15.336 74.296 45.576zm-172.532-11.246c-5.845 0-10.6-4.755-10.6-10.601s4.755-10.6 10.6-10.6 10.6 4.755 10.6 10.6-4.756 10.601-10.6 10.601zm87.289-48.825a92.436 92.436 0 0 0-14.501 3.057 195.905 195.905 0 0 0-3.635-21.591c6.094 5.751 12.15 11.937 18.136 18.534zM47.246 155.138c4.026 1.505 6.906 5.378 6.906 9.922 0 5.739-4.588 10.416-10.286 10.583a239.637 239.637 0 0 1 3.38-20.505zm252.065 246.788-.097.071c-61.234 45.443-163.792.122-217.561-68.986-15.28-20.215-25.939-41.876-32.364-66.103 12.29 21.021 28.884 37.107 48.425 45.916 1.014.457 7.746 1.684 10.057-3.807 1.629-3.87.021-8.331-3.808-10.056-33.15-14.944-56.681-55.018-61.696-104.832.058-1.1.124-2.217.197-3.347.356.052 26.895-1.482 26.895-25.721 0-11.668-7.785-21.547-18.434-24.729 5.739-19.882 14.928-39.872 29.487-56.459l.086-.1c26.289-31.018 68.234-36.567 112.206-14.844l.111.054c11.173 5.297 22.572 12.406 33.976 21.134 5.308 14.08 8.724 29.337 10.191 45.417-14.477 6.827-23.864 15.15-25.702 16.85-.941.749-3.668 2.994-7.279 6.567-2.752-11.29-12.945-19.698-25.07-19.698-14.23 0-25.807 11.577-25.807 25.807 0 25.929 27.09 25.776 27.722 25.729-4.782 9.743-8.451 21.069-9.323 33.705-1.332 19.318 4.057 38.38 16.042 56.928-10.349 9.464-21.495 16.208-33.194 20.054-3.99 1.311-6.317 5.664-4.849 9.598 2.573 6.897 8.809 5.108 9.598 4.849 13.286-4.368 25.863-11.806 37.466-22.147 47.515 66.016 139.131 65.008 139.389 65.007-8.537 17.157-21.078 31.955-36.664 43.143zm145.24 27.314c-.723 2.62-13.742-.888-40.682-12.291-22.087-9.348-47.007-22.066-65.941-32.178a133.166 133.166 0 0 0 7.11-10.83c17.052 9.793 54.451 30.859 89.897 47.037 8.663 3.954 10.16 6.235 9.616 8.262zm-8.288-24.414c-33.837-15.889-68.619-35.43-84.238-44.41.289-.648.558-1.307.836-1.961 12.078 8.405 75.112 42.416 89.843 31.093 5.642-4.336 8.425-11.416 8.469-21.331 37.475 38.803 44.198 53.37 45.381 57.684-4.237.265-18.339-1.375-60.291-21.075z" fill="#ffffff" opacity="1" data-original="#000000" class=""></path><path d="M75.338 125.367c-1.409-1.419-3.376-2.23-5.373-2.23s-3.964.811-5.373 2.23a7.632 7.632 0 0 0-2.23 5.373c0 1.997.811 3.964 2.23 5.373 1.409 1.419 3.376 2.23 5.373 2.23s3.964-.811 5.373-2.23a7.615 7.615 0 0 0 2.23-5.373 7.616 7.616 0 0 0-2.23-5.373zM164.666 125.367c-1.409-1.419-3.376-2.23-5.373-2.23s-3.964.811-5.373 2.23a7.632 7.632 0 0 0-2.23 5.373c0 1.997.811 3.964 2.23 5.373a7.636 7.636 0 0 0 5.373 2.23 7.615 7.615 0 0 0 7.603-7.603 7.616 7.616 0 0 0-2.23-5.373zM338.953 195.572c-19.518-25.901-40.304-39.033-61.783-39.033a7.603 7.603 0 0 0-7.604 7.604 7.603 7.603 0 0 0 7.604 7.604c16.449 0 33.148 11.095 49.64 32.977a7.59 7.59 0 0 0 6.078 3.028c1.593 0 3.2-.499 4.569-1.532a7.603 7.603 0 0 0 1.496-10.648zM381.309 267.119a946.194 946.194 0 0 0-24.021-42.548 7.604 7.604 0 0 0-13.043 7.82 932.408 932.408 0 0 1 23.63 41.851 7.604 7.604 0 1 0 13.434-7.123z" fill="#ffffff" opacity="1" data-original="#000000" class=""></path></g></svg>